<?xml version="1.0" standalone="no"?>
<!DOCTYPE svg PUBLIC "-//W3C//DTD SVG 20010904//EN"
 "http://www.w3.org/TR/2001/REC-SVG-20010904/DTD/svg10.dtd">
<svg version="1.0" xmlns="http://www.w3.org/2000/svg"
 width="3840.000000pt" height="3840.000000pt" viewBox="0 0 3840.000000 3840.000000"
 preserveAspectRatio="xMidYMid meet">
<metadata>
Created by potrace 1.14, written by Peter Selinger 2001-2017
</metadata>
<g transform="translate(0.000000,3840.000000) scale(0.100000,-0.100000)"
fill="#000000" stroke="none">
<path d="M17736 29693 c-2 -2 -239 -6 -527 -9 -659 -6 -1013 -11 -1394 -19
-165 -3 -388 -8 -495 -10 -305 -5 -1023 -24 -1550 -40 -307 -9 -521 -16 -890
-31 -91 -3 -210 -7 -265 -9 -55 -2 -167 -6 -250 -9 -82 -4 -199 -9 -260 -11
-60 -2 -166 -7 -235 -10 -69 -3 -172 -8 -230 -10 -58 -3 -157 -7 -220 -10 -63
-3 -155 -7 -205 -10 -49 -2 -137 -6 -195 -9 -58 -3 -154 -8 -215 -11 -60 -3
-153 -8 -205 -10 -52 -3 -133 -8 -180 -10 -47 -3 -128 -7 -180 -10 -52 -2
-138 -7 -190 -10 -91 -5 -139 -8 -350 -20 -177 -10 -245 -14 -330 -20 -47 -3
-121 -8 -165 -10 -44 -3 -116 -7 -160 -10 -44 -3 -114 -7 -155 -10 -41 -2
-113 -7 -160 -10 -102 -8 -200 -14 -295 -19 -38 -2 -70 -5 -70 -6 0 -1 -27 -3
-60 -5 -114 -5 -320 -24 -415 -39 -22 -4 -82 -13 -145 -21 -11 -2 -20 -4 -20
-5 0 -1 -11 -3 -25 -5 -14 -2 -38 -6 -55 -10 -16 -3 -43 -8 -60 -11 -16 -3
-43 -9 -59 -14 -15 -6 -32 -7 -37 -4 -5 3 -9 0 -9 -6 0 -6 -4 -9 -8 -6 -8 5
-59 -6 -102 -22 -8 -3 -19 -6 -25 -7 -5 -1 -12 -3 -15 -4 -7 -3 -28 -9 -64
-16 -16 -3 -34 -9 -40 -13 -6 -4 -13 -7 -16 -8 -52 -9 -81 -18 -86 -25 -3 -5
-10 -7 -15 -4 -5 4 -9 1 -9 -5 0 -6 -4 -8 -10 -5 -5 3 -20 0 -32 -7 -13 -6
-32 -13 -43 -15 -11 -2 -33 -10 -50 -17 -31 -15 -63 -27 -68 -24 -1 1 -13 -5
-27 -12 -14 -8 -27 -15 -30 -15 -3 -1 -27 -12 -55 -25 -27 -13 -53 -24 -57
-24 -4 -1 -12 -6 -19 -13 -6 -6 -18 -9 -25 -6 -8 3 -14 1 -14 -4 0 -6 -20 -18
-45 -29 -25 -10 -45 -22 -45 -26 0 -4 -6 -5 -14 -2 -7 3 -16 -2 -20 -11 -3 -9
-10 -13 -16 -10 -5 3 -10 1 -10 -5 0 -6 -4 -9 -10 -5 -5 3 -18 -3 -30 -15 -11
-11 -20 -18 -20 -15 0 3 -13 -1 -30 -10 -16 -9 -30 -20 -30 -26 0 -6 -4 -8 -9
-5 -5 4 -23 -6 -40 -20 -17 -14 -31 -22 -31 -17 0 4 -4 3 -8 -3 -4 -6 -20 -18
-37 -27 -16 -8 -40 -25 -52 -37 -13 -11 -23 -17 -23 -13 0 4 -4 3 -8 -3 -4 -6
-26 -23 -49 -37 -22 -14 -58 -43 -79 -64 -21 -21 -32 -29 -25 -18 8 11 0 6
-17 -12 -17 -17 -33 -29 -36 -26 -3 4 -6 1 -6 -5 0 -7 -6 -12 -14 -12 -8 0
-18 -9 -21 -20 -4 -11 -11 -18 -16 -15 -5 4 -12 -1 -15 -9 -3 -8 -14 -18 -25
-21 -11 -4 -17 -11 -14 -16 4 -5 2 -9 -4 -9 -16 0 -61 -46 -53 -54 4 -4 2 -6
-3 -4 -14 4 -155 -133 -155 -150 0 -7 -4 -11 -9 -8 -5 3 -14 -1 -21 -9 -7 -8
-10 -15 -6 -15 3 0 -8 -13 -24 -29 -17 -15 -30 -31 -30 -33 0 -3 -17 -23 -37
-44 -21 -22 -45 -50 -53 -63 -8 -13 -21 -30 -28 -37 -7 -8 -11 -14 -8 -14 3 0
-6 -11 -19 -25 -14 -13 -25 -31 -25 -40 0 -8 -4 -14 -9 -13 -5 2 -10 -1 -12
-7 -2 -5 -11 -19 -21 -29 -9 -10 -15 -22 -13 -26 3 -5 -2 -11 -11 -14 -8 -3
-13 -10 -10 -15 3 -5 -1 -12 -10 -15 -8 -3 -13 -10 -10 -15 3 -5 -1 -11 -9
-15 -8 -3 -15 -12 -15 -21 0 -8 -4 -15 -10 -15 -5 0 -10 -5 -10 -11 0 -6 -9
-22 -20 -36 -11 -14 -18 -29 -15 -33 3 -4 -2 -11 -11 -14 -9 -4 -14 -9 -11
-12 3 -4 -3 -15 -13 -27 -11 -11 -17 -24 -14 -29 3 -4 1 -8 -5 -8 -9 0 -23
-30 -18 -41 1 -3 -6 -13 -16 -23 -9 -10 -15 -21 -12 -26 3 -4 -2 -11 -11 -14
-8 -3 -13 -10 -10 -15 4 -5 2 -11 -3 -13 -5 -1 -11 -10 -13 -18 -2 -8 -7 -18
-11 -21 -5 -3 -9 -13 -11 -21 -1 -9 -8 -24 -16 -34 -13 -16 -13 -17 0 -9 9 5
8 0 -4 -13 -11 -12 -16 -22 -12 -22 4 0 0 -7 -8 -16 -14 -13 -18 -28 -15 -50
0 -4 -4 -10 -11 -14 -6 -4 -12 -13 -14 -21 -1 -8 -8 -24 -14 -36 -7 -13 -9
-23 -5 -23 4 0 4 -4 -2 -8 -9 -6 -32 -59 -39 -87 -1 -5 -8 -21 -16 -35 -7 -14
-13 -26 -12 -27 3 -5 -1 -20 -17 -57 -6 -16 -13 -36 -15 -45 -2 -9 -6 -24 -10
-33 -4 -9 -8 -22 -10 -30 -1 -7 -5 -19 -9 -25 -5 -7 -5 -17 -2 -23 3 -5 2 -10
-3 -10 -5 0 -9 -6 -10 -12 -1 -15 -10 -53 -12 -53 -3 0 -12 -39 -13 -57 -1
-10 -4 -18 -8 -18 -6 0 -18 -48 -24 -95 -1 -5 -4 -17 -7 -25 -12 -31 -27 -104
-22 -112 3 -4 1 -8 -3 -8 -5 0 -10 -10 -11 -22 0 -13 -3 -34 -6 -48 -3 -14 -8
-38 -11 -55 -3 -16 -8 -41 -11 -55 -3 -14 -7 -37 -7 -52 -1 -16 -4 -28 -7 -28
-4 0 -6 -10 -7 -22 -1 -28 -9 -90 -19 -143 -4 -22 -8 -49 -10 -60 -1 -11 -3
-20 -4 -20 -2 0 -5 -18 -14 -90 -3 -27 -8 -61 -11 -75 -3 -14 -7 -42 -10 -63
-2 -22 -6 -51 -9 -65 -3 -15 -8 -43 -10 -62 -3 -19 -8 -44 -10 -56 -2 -11 -7
-45 -10 -75 -3 -30 -8 -67 -11 -83 -3 -15 -8 -47 -10 -70 -3 -22 -9 -63 -14
-91 -5 -27 -7 -58 -5 -67 1 -10 0 -18 -4 -18 -4 0 -8 -12 -9 -27 -2 -36 -10
-106 -19 -163 -4 -25 -8 -60 -8 -77 -1 -18 -3 -33 -6 -33 -3 0 -6 -15 -7 -32
-1 -18 -4 -51 -7 -73 -11 -89 -16 -132 -22 -170 -3 -22 -7 -56 -9 -75 -10 -92
-24 -207 -31 -265 -5 -36 -14 -127 -19 -175 -2 -19 -6 -55 -9 -80 -3 -25 -8
-70 -11 -100 -3 -30 -7 -72 -10 -92 -5 -36 -11 -96 -20 -198 -2 -25 -7 -72
-10 -105 -4 -33 -8 -80 -10 -105 -2 -25 -6 -72 -10 -105 -3 -33 -8 -85 -10
-115 -3 -30 -7 -77 -10 -105 -8 -82 -16 -187 -20 -245 -2 -30 -6 -82 -9 -115
-5 -57 -11 -136 -21 -285 -3 -36 -7 -99 -11 -140 -3 -41 -7 -109 -9 -150 -2
-41 -7 -111 -10 -155 -3 -44 -8 -123 -10 -175 -3 -52 -7 -133 -10 -180 -12
-214 -29 -610 -40 -955 -23 -735 -23 -1900 1 -2610 11 -362 20 -575 29 -760 3
-55 7 -147 10 -205 3 -58 8 -141 10 -185 3 -44 7 -118 10 -165 2 -47 7 -121
10 -165 3 -44 8 -109 10 -145 12 -170 16 -229 20 -275 2 -27 6 -88 9 -135 4
-47 8 -110 11 -140 3 -30 7 -82 9 -115 3 -33 8 -91 11 -130 4 -38 8 -88 10
-110 6 -75 17 -200 21 -240 2 -22 6 -62 8 -90 3 -27 8 -84 11 -125 4 -41 8
-93 10 -115 2 -22 4 -40 5 -40 1 0 4 -22 6 -50 4 -54 9 -117 19 -210 4 -33 8
-78 10 -100 1 -22 4 -40 5 -40 1 0 3 -22 5 -50 1 -27 4 -50 5 -50 1 0 3 -18 5
-40 2 -22 7 -62 10 -90 3 -27 8 -77 10 -110 3 -33 8 -71 12 -85 3 -14 8 -41 9
-60 6 -59 12 -105 14 -105 1 0 3 -18 5 -40 4 -38 8 -71 21 -152 3 -21 7 -51
10 -68 2 -16 6 -43 9 -60 12 -77 17 -112 18 -132 0 -13 3 -23 7 -23 3 0 5 -10
6 -22 0 -13 4 -43 9 -68 4 -25 8 -53 9 -62 0 -10 3 -18 6 -18 3 0 6 -8 7 -17
1 -27 12 -94 20 -128 4 -16 7 -37 8 -45 0 -8 4 -21 8 -27 5 -7 6 -13 4 -13 -3
0 -1 -17 4 -37 5 -21 12 -49 14 -63 3 -14 6 -33 8 -42 2 -10 6 -20 9 -24 4 -3
4 -12 2 -19 -3 -7 0 -16 5 -20 6 -3 9 -11 6 -16 -4 -5 -3 -15 1 -21 5 -7 9
-22 11 -33 5 -32 10 -60 13 -65 3 -6 3 -9 14 -67 5 -24 12 -43 15 -43 4 0 7
-8 8 -17 2 -31 13 -77 28 -114 8 -20 11 -39 8 -43 -3 -3 0 -12 6 -20 7 -8 14
-25 17 -38 12 -70 17 -88 25 -88 5 0 6 -7 3 -15 -4 -8 -1 -15 5 -15 6 0 8 -7
5 -15 -4 -8 -2 -15 2 -15 5 0 10 -10 11 -23 0 -12 6 -35 13 -52 6 -16 11 -31
11 -33 -1 -1 5 -15 12 -30 8 -15 12 -33 10 -39 -3 -7 0 -13 7 -13 6 0 9 -4 5
-9 -3 -5 -1 -12 5 -16 6 -4 8 -11 5 -16 -4 -5 -2 -9 4 -9 6 0 8 -7 5 -15 -4
-8 -1 -15 6 -15 6 0 9 -4 5 -9 -3 -5 -1 -12 4 -16 6 -3 8 -12 4 -20 -3 -8 0
-15 6 -15 6 0 11 -4 11 -9 0 -5 5 -22 12 -38 6 -15 12 -31 13 -35 2 -5 4 -10
5 -13 1 -3 3 -8 4 -12 1 -5 11 -26 21 -48 10 -22 17 -46 16 -52 -1 -7 3 -13 9
-13 5 0 10 -9 10 -19 0 -11 6 -26 13 -33 6 -7 13 -20 15 -28 2 -8 7 -17 10
-20 4 -3 9 -14 10 -25 2 -11 8 -23 14 -26 5 -3 9 -10 9 -15 0 -14 62 -139 71
-142 4 -2 6 -8 2 -13 -3 -5 0 -9 6 -9 6 0 9 -4 5 -9 -3 -5 0 -15 7 -23 7 -7
24 -35 37 -61 13 -26 28 -47 33 -47 5 0 7 -4 4 -8 -3 -5 4 -21 15 -38 11 -16
24 -39 29 -51 5 -13 14 -23 20 -23 6 0 9 -4 5 -9 -3 -6 3 -14 12 -20 10 -6 14
-11 10 -11 -5 0 0 -13 9 -29 10 -17 22 -27 27 -24 6 3 7 1 3 -5 -3 -6 0 -16 7
-24 7 -7 22 -28 32 -45 11 -18 23 -33 27 -33 4 0 8 -6 8 -13 0 -8 17 -31 38
-53 20 -21 31 -34 23 -29 -8 5 0 -10 19 -33 18 -23 37 -42 42 -42 4 0 8 -6 8
-14 0 -8 10 -22 22 -30 12 -9 19 -16 15 -16 -4 0 -2 -6 5 -14 7 -8 17 -11 22
-8 5 3 6 0 2 -6 -3 -6 3 -17 14 -25 11 -7 17 -17 13 -20 -3 -4 2 -7 12 -7 10
0 16 -3 12 -6 -3 -4 11 -24 32 -45 22 -21 36 -40 33 -43 -3 -3 2 -6 11 -6 9 0
17 -6 17 -14 0 -8 9 -17 19 -21 11 -3 23 -15 26 -26 4 -10 11 -19 16 -19 5 0
23 -15 40 -32 17 -18 36 -32 41 -30 5 1 7 -2 4 -7 -3 -5 2 -15 11 -22 9 -8 14
-9 10 -3 -4 6 21 -15 54 -47 34 -32 65 -57 69 -54 4 3 10 -1 13 -8 3 -8 25
-29 48 -48 24 -19 39 -27 34 -19 -5 8 6 0 24 -18 18 -17 37 -29 43 -26 6 4 8
2 5 -3 -6 -9 20 -27 32 -23 2 1 8 -5 13 -14 5 -9 13 -14 19 -11 5 4 9 2 9 -3
0 -11 80 -66 80 -55 0 5 5 0 11 -10 6 -9 14 -15 20 -12 5 4 9 2 9 -2 0 -5 9
-14 21 -21 17 -11 20 -11 14 0 -3 7 -1 6 7 -3 15 -18 79 -54 90 -51 5 1 8 -2
8 -7 0 -10 39 -27 53 -23 4 1 10 -5 13 -13 4 -8 10 -15 15 -15 5 0 52 -21 106
-47 53 -25 103 -46 110 -46 7 0 13 -4 13 -9 0 -5 5 -6 10 -3 6 3 10 1 10 -4 0
-6 8 -11 18 -11 10 0 23 -5 30 -12 7 -7 12 -9 12 -4 0 4 12 1 28 -8 15 -8 43
-20 62 -26 19 -7 50 -19 68 -27 18 -8 37 -11 42 -8 6 3 10 1 10 -5 0 -7 7 -10
15 -6 8 3 15 1 15 -5 0 -6 7 -9 15 -5 8 3 15 1 15 -4 0 -6 8 -10 19 -10 10 0
35 -7 55 -15 20 -8 36 -12 36 -9 0 4 7 1 15 -6 8 -7 15 -10 15 -7 0 4 18 0 41
-8 23 -8 45 -13 49 -10 5 3 12 0 15 -6 4 -5 13 -8 21 -5 7 3 16 1 20 -5 3 -6
12 -8 20 -5 7 3 16 1 20 -5 3 -6 12 -8 20 -5 7 3 16 1 19 -4 3 -5 13 -9 23 -9
19 1 77 -8 77 -12 0 -1 9 -3 20 -5 11 -2 34 -6 50 -9 17 -3 41 -8 55 -10 14
-2 25 -4 25 -5 0 -2 9 -4 20 -6 11 -2 31 -6 45 -8 14 -3 39 -7 55 -10 17 -3
44 -8 60 -12 17 -3 39 -7 50 -9 11 -1 31 -5 45 -8 14 -4 45 -9 70 -11 25 -2
45 -5 45 -6 0 -4 43 -11 77 -13 21 -1 38 -4 38 -7 0 -3 17 -7 38 -8 20 -1 53
-4 72 -7 19 -3 49 -8 65 -10 31 -4 77 -11 130 -20 34 -5 113 -15 165 -20 19
-1 55 -6 80 -10 25 -4 63 -9 85 -11 22 -2 60 -6 85 -8 25 -3 65 -7 90 -10 54
-6 199 -20 335 -31 156 -13 320 -25 405 -30 41 -3 111 -7 155 -10 44 -3 134
-8 200 -11 66 -3 161 -7 210 -9 420 -20 1003 -32 1990 -40 651 -6 1030 -11
1505 -20 173 -3 419 -8 545 -10 127 -2 370 -7 540 -10 171 -3 420 -8 555 -10
229 -4 491 -9 1095 -20 411 -8 835 -15 1090 -20 132 -2 373 -7 535 -10 162 -3
412 -8 555 -10 924 -16 908 -16 1095 -32 116 -9 2292 -9 2735 1 737 16 875 20
1195 31 91 3 228 8 305 11 77 2 190 6 250 9 61 2 175 7 255 10 163 6 310 12
480 20 63 3 156 8 205 10 112 5 313 14 425 20 47 3 137 7 200 10 161 8 238 12
365 20 61 3 142 8 180 10 39 2 117 7 175 10 58 4 139 8 180 10 41 2 113 6 160
9 86 6 202 13 340 21 77 5 185 11 325 20 44 3 109 7 145 9 36 3 108 7 160 11
52 3 124 8 160 10 127 8 216 14 295 20 44 4 112 8 150 11 39 2 99 6 135 8 126
10 246 18 305 21 33 1 60 4 60 5 0 1 29 3 65 6 127 7 226 13 290 18 70 6 157
12 290 21 47 3 112 8 145 11 33 2 87 6 120 9 195 14 259 20 430 41 33 4 68 7
78 8 9 0 17 3 17 6 0 3 12 6 28 7 34 1 147 18 147 23 0 1 9 3 20 5 62 9 102
17 120 23 11 3 23 7 28 8 4 1 8 2 10 3 1 1 17 4 35 7 18 2 42 9 53 14 10 6 19
8 19 4 0 -3 6 -1 13 5 8 6 16 8 19 6 3 -3 18 0 34 6 16 7 35 11 42 10 6 -1 12
3 12 9 0 6 4 9 9 6 5 -4 22 -1 38 5 15 7 33 13 38 15 43 11 140 46 174 62 23
11 39 17 36 13 -2 -4 17 3 43 15 26 13 53 24 60 24 6 0 12 5 12 12 0 6 3 8 6
5 4 -3 16 -1 28 5 11 7 24 11 29 10 4 -1 7 3 7 9 0 5 4 8 9 4 5 -3 16 2 25 10
8 9 17 16 18 16 15 -1 48 13 48 20 0 5 3 8 8 7 12 -2 46 15 60 31 8 9 10 10 7
2 -8 -14 44 15 56 32 3 5 9 7 12 5 4 -1 15 5 27 14 11 10 20 15 20 12 0 -7 63
37 72 51 4 5 8 6 8 2 0 -11 60 30 83 57 10 12 16 14 12 6 -4 -8 3 -4 15 10 12
14 18 19 14 11 -5 -9 2 -7 18 5 14 10 23 23 20 28 -3 5 0 6 5 3 10 -6 43 17
94 65 11 10 24 18 29 18 6 0 10 7 10 17 0 9 3 14 6 10 7 -7 21 4 90 69 29 28
64 59 76 68 13 9 16 14 8 10 -8 -4 1 8 20 27 19 19 38 33 43 31 4 -2 7 4 7 13
0 9 5 13 10 10 6 -3 10 -2 10 3 0 5 16 26 36 48 75 82 85 94 80 94 -3 0 13 19
34 41 22 23 37 46 33 52 -3 6 -1 7 4 4 6 -4 17 1 24 10 12 14 12 16 0 8 -8 -4
9 20 37 54 29 34 49 67 46 73 -4 6 -2 8 3 5 10 -6 23 13 22 30 -1 3 6 10 15
15 9 5 14 13 11 18 -3 4 2 10 10 14 8 3 15 12 15 20 0 8 4 16 9 18 5 2 11 9
13 17 2 7 13 25 25 39 13 13 20 28 17 33 -3 5 0 9 7 9 7 0 10 3 6 6 -3 3 1 13
9 22 8 10 14 21 14 25 -1 4 6 15 15 23 8 9 13 19 10 24 -3 4 2 11 11 14 8 3
13 10 10 15 -4 5 -2 11 3 13 5 1 11 10 13 18 2 8 9 21 16 28 7 8 10 18 7 23
-4 5 -2 9 4 9 9 0 18 19 22 45 1 6 9 16 18 23 12 10 12 12 1 6 -12 -6 -12 -4
1 12 24 28 49 81 42 88 -4 3 -1 6 6 6 7 0 9 5 6 10 -3 6 -1 10 4 10 6 0 11 7
11 15 0 9 7 27 16 40 9 14 12 25 8 25 -5 0 -4 4 3 8 6 4 13 16 15 27 1 11 7
23 11 26 4 3 9 16 10 27 1 12 5 22 10 22 4 0 5 4 2 10 -3 5 -1 10 5 10 7 0 10
7 6 15 -3 8 -2 15 3 15 8 0 38 80 33 93 -1 4 3 7 9 7 6 0 9 6 6 14 -3 8 -2 16
4 18 5 2 11 12 13 23 2 11 9 32 14 46 6 15 8 30 5 33 -4 3 -1 6 6 6 6 0 11 6
9 13 -1 6 3 22 10 35 7 12 10 26 7 31 -3 5 0 11 5 13 6 2 12 14 14 28 2 14 7
33 10 42 4 9 9 22 10 30 2 7 8 26 15 41 6 16 9 33 5 38 -3 5 -1 9 4 9 5 0 12
12 15 28 8 42 15 71 21 80 3 5 7 19 10 33 3 13 9 39 15 56 5 18 7 33 4 33 -3
0 0 7 7 15 7 9 10 18 7 22 -4 3 -3 11 2 17 5 6 12 25 14 41 3 17 9 41 12 55 4
14 8 34 10 45 2 11 4 20 5 20 1 0 4 9 6 20 3 11 6 25 7 30 1 6 7 16 11 24 7
10 5 12 -3 6 -10 -6 -11 -3 -2 12 10 20 20 56 27 103 2 14 10 52 18 84 8 33
13 63 10 68 -3 4 -1 8 3 8 5 0 9 8 10 18 1 20 11 87 13 87 3 0 10 38 14 75 2
19 5 35 6 35 3 0 6 18 14 65 2 14 5 25 6 25 1 0 4 14 5 30 2 17 6 44 9 60 4
17 9 44 11 60 2 17 7 48 11 70 4 22 7 50 6 63 0 12 3 22 7 22 4 0 7 10 8 23 0
12 3 36 6 52 9 50 20 129 21 158 0 15 3 27 6 27 3 0 6 17 7 38 1 20 4 48 7 62
3 14 8 41 10 60 3 19 8 53 11 75 3 22 8 54 10 70 2 17 7 53 11 80 4 28 8 62 8
78 0 15 3 27 6 27 3 0 6 15 7 33 2 40 11 112 13 112 1 0 4 16 5 35 4 47 13
116 20 165 4 22 8 56 10 75 2 19 4 35 5 35 1 0 3 18 5 40 2 22 7 60 10 85 3
25 7 61 10 80 2 19 7 58 10 85 3 28 8 70 11 95 2 25 6 63 9 85 2 22 7 61 10
88 3 26 7 68 10 95 3 26 8 67 10 92 5 54 13 128 20 190 2 25 7 72 10 105 4 33
8 83 11 110 3 28 7 73 9 100 4 62 12 150 20 235 4 36 9 94 11 130 3 36 7 83 8
105 7 74 18 219 22 275 2 30 6 89 8 130 3 41 8 116 11 165 12 184 15 232 20
330 3 55 7 141 10 190 8 150 23 517 30 740 27 863 22 1964 -10 2735 -3 74 -8
178 -10 230 -6 165 -31 624 -40 755 -3 33 -7 94 -9 135 -3 41 -8 109 -11 150
-3 41 -7 104 -10 140 -2 36 -7 101 -10 145 -3 44 -8 105 -10 135 -3 30 -7 89
-10 130 -8 113 -13 178 -20 255 -5 64 -10 123 -20 260 -10 127 -16 204 -20
250 -2 28 -7 82 -10 120 -3 39 -8 93 -11 120 -2 28 -6 73 -9 100 -2 28 -6 75
-10 105 -3 30 -7 80 -10 110 -2 30 -7 75 -10 100 -3 25 -8 70 -11 100 -3 30
-7 75 -10 100 -3 25 -6 61 -8 80 -2 19 -4 35 -5 35 -2 0 -4 23 -7 50 -6 64
-12 110 -14 110 -1 0 -3 16 -5 35 -8 73 -19 155 -30 220 -3 19 -7 53 -10 75
-8 66 -13 100 -15 100 -3 0 -10 39 -14 80 -2 22 -5 41 -6 43 -1 1 -4 11 -5 22
-1 11 -3 21 -5 23 -1 1 -3 16 -6 32 -6 48 -11 80 -14 80 -1 0 -3 11 -5 25 -9
77 -17 126 -23 135 -4 5 -7 19 -9 30 -1 11 -4 31 -7 45 -13 71 -17 87 -23 110
-3 14 -7 32 -8 40 -1 8 -8 35 -14 60 -6 25 -13 54 -16 65 -12 65 -16 81 -21
95 -3 8 -8 26 -10 40 -3 14 -7 32 -11 40 -3 8 -7 22 -9 30 -4 24 -25 104 -31
120 -3 8 -8 24 -10 35 -2 11 -6 27 -10 35 -3 8 -8 24 -10 35 -2 11 -8 24 -13
29 -4 4 -6 15 -3 22 3 8 0 14 -6 14 -6 0 -8 7 -5 15 4 8 1 15 -6 15 -6 0 -9 4
-5 10 3 5 -1 25 -9 45 -8 19 -15 36 -15 38 0 3 -8 29 -17 52 -4 11 -8 23 -9
28 -2 4 -3 8 -4 10 -2 1 -5 13 -7 27 -2 13 -8 27 -12 30 -4 3 -8 12 -9 20 -3
26 -46 135 -54 138 -4 2 -5 10 -2 18 3 8 1 14 -4 14 -5 0 -10 6 -10 13 0 6 -8
30 -18 52 -10 22 -17 44 -16 49 1 4 -6 20 -16 35 -9 14 -18 32 -19 40 -2 8 -6
17 -11 20 -4 3 -9 13 -11 21 -6 29 -46 110 -54 110 -4 0 -7 3 -6 8 4 13 -13
52 -23 52 -5 0 -8 3 -7 8 4 14 -14 52 -24 52 -6 0 -8 3 -5 6 7 7 -22 64 -38
76 -5 4 -6 8 -1 8 5 0 2 8 -6 18 -9 9 -19 27 -22 40 -4 12 -12 22 -17 22 -6 0
-7 5 -4 10 3 6 1 10 -4 10 -6 0 -11 7 -11 15 0 8 -5 15 -11 15 -5 0 -8 4 -4 9
3 5 -2 16 -10 24 -8 9 -15 20 -15 26 0 6 -4 11 -10 11 -5 0 -10 7 -10 15 0 9
-6 18 -14 21 -8 3 -12 12 -10 19 3 7 0 16 -7 21 -8 5 -10 3 -4 -7 5 -8 4 -10
0 -6 -5 4 -10 15 -11 25 -2 9 -8 18 -13 20 -6 2 -11 9 -11 17 0 7 -10 20 -22
29 -13 9 -16 14 -8 9 8 -4 1 11 -15 32 -17 22 -38 51 -47 65 -8 14 -27 37 -41
52 -14 15 -23 29 -20 32 3 2 -4 11 -16 18 -12 7 -21 18 -21 25 0 6 -11 21 -26
32 -14 11 -25 22 -24 26 1 6 -29 40 -106 121 -29 30 -50 54 -47 54 3 0 -14 20
-38 45 -24 24 -45 42 -48 40 -2 -3 -9 5 -16 18 -6 12 -16 21 -22 20 -6 -1 -16
9 -23 22 -7 14 -19 25 -26 25 -6 0 -15 7 -18 16 -3 8 -10 13 -15 9 -5 -3 -12
4 -16 14 -3 11 -15 23 -26 26 -10 4 -24 15 -30 26 -5 11 -14 17 -19 14 -5 -3
-11 4 -15 15 -4 11 -10 18 -15 15 -4 -3 -11 2 -14 11 -4 9 -9 14 -13 10 -3 -3
-13 3 -20 14 -8 11 -19 18 -24 15 -5 -4 -9 -2 -9 3 0 8 -134 112 -145 112 -3
0 -15 9 -27 20 -12 10 -24 17 -28 15 -5 -3 -11 2 -14 11 -3 8 -10 12 -16 9 -5
-3 -10 -2 -10 4 0 5 -12 16 -27 23 -37 19 -77 42 -83 48 -3 3 -18 12 -35 20
-16 8 -33 19 -37 25 -5 6 -8 6 -8 1 0 -6 -7 -1 -16 10 -8 10 -12 12 -8 4 4 -8
-4 -5 -18 8 -14 13 -35 24 -47 25 -11 1 -21 5 -21 9 0 4 -7 8 -15 8 -8 0 -15
5 -15 10 0 6 -6 10 -14 10 -7 0 -34 11 -60 25 -25 13 -48 25 -51 25 -3 0 -19
7 -35 15 -17 9 -30 12 -30 8 0 -5 -4 -3 -8 2 -11 16 -56 39 -47 25 4 -7 -4 -4
-18 5 -14 9 -32 18 -39 19 -7 2 -26 9 -43 15 -16 7 -37 14 -45 16 -8 2 -30 11
-47 20 -18 9 -37 14 -43 10 -5 -3 -10 -1 -10 6 0 7 -3 9 -7 6 -3 -4 -12 -2
-20 4 -7 6 -13 8 -13 4 0 -4 -6 -3 -13 3 -7 6 -24 13 -37 16 -14 3 -40 9 -57
15 -18 5 -33 7 -33 3 0 -4 -4 -2 -8 5 -4 6 -21 14 -37 17 -17 2 -31 5 -32 6
-2 2 -6 3 -10 4 -5 1 -18 5 -31 10 -12 4 -32 9 -45 10 -12 2 -40 8 -62 14 -41
11 -84 21 -120 27 -11 2 -20 4 -20 5 0 2 -9 4 -20 6 -24 3 -80 13 -115 20 -14
3 -34 7 -45 9 -11 2 -33 6 -50 10 -16 4 -46 8 -65 10 -19 2 -36 5 -37 6 -5 3
-16 5 -73 13 -30 5 -64 11 -75 13 -11 3 -33 7 -50 8 -16 2 -43 6 -60 9 -16 4
-46 9 -65 12 -19 3 -48 7 -65 10 -16 2 -48 7 -70 10 -48 6 -80 12 -80 14 0 1
-18 4 -40 5 -22 2 -51 6 -64 9 -34 8 -177 26 -233 29 -16 1 -28 4 -28 7 0 3
-15 5 -32 5 -18 -1 -37 1 -43 4 -5 3 -26 6 -45 7 -19 1 -60 5 -90 9 -82 9
-181 19 -320 32 -171 15 -410 26 -800 38 -107 3 -260 8 -340 10 -137 5 -217 7
-640 20 -227 7 -514 15 -715 20 -88 2 -259 7 -380 10 -121 3 -296 8 -390 10
-93 2 -289 7 -435 10 -1170 28 -2302 47 -3510 61 -503 5 -3939 11 -3944 7z"/>
</g>
</svg>
